<svg xmlns="http://www.w3.org/2000/svg" width="1200" height="800" viewBox="0 0 1200 800"><defs><linearGradient id="sky" x2=".2" y2="1"><stop stop-color="#2b2830"/><stop offset="1" stop-color="#503d39"/></linearGradient><linearGradient id="water" x2="0" y2="1"><stop stop-color="#503d39"/><stop offset="1" stop-color="#08171d"/></linearGradient><linearGradient id="glow" x2="0" y2="1"><stop stop-color="#ffe6a6"/><stop offset="1" stop-color="#bc8050"/></linearGradient><radialGradient id="halo"><stop stop-color="#efbb76" stop-opacity=".24"/><stop offset="1" stop-color="#efbb76" stop-opacity="0"/></radialGradient></defs><rect width="1200" height="800" fill="url(#sky)"/><path d="M0 0H1200V800H0Z" fill="#322c33"/><path d="M140 530V200Q140 80 260 80T380 200V530Z" fill="#142d35"/><circle cx="240" cy="180" r="3" fill="#d9ccb0"/><circle cx="315" cy="260" r="2" fill="#d9ccb0"/><path d="M480 530V200Q480 80 600 80T720 200V530Z" fill="#142d35"/><circle cx="580" cy="180" r="3" fill="#d9ccb0"/><circle cx="655" cy="260" r="2" fill="#d9ccb0"/><path d="M820 530V200Q820 80 940 80T1060 200V530Z" fill="#142d35"/><circle cx="920" cy="180" r="3" fill="#d9ccb0"/><circle cx="995" cy="260" r="2" fill="#d9ccb0"/><path d="M0 625H1200V800H0Z" fill="#262727"/><path d="M174 474H995L1141 696H50Z" fill="#865e4c"/><path d="M201 477H978L1079 638H122Z" fill="#c7a687"/><ellipse cx="220" cy="510" rx="37" ry="17" fill="#e1d5bd"/><ellipse cx="220" cy="510" rx="26" ry="11" fill="none" stroke="#b1a187"/><path d="M267 504v32m-4-32h8" stroke="#d6c7ae" stroke-width="3"/><ellipse cx="340" cy="573" rx="37" ry="17" fill="#e1d5bd"/><ellipse cx="340" cy="573" rx="26" ry="11" fill="none" stroke="#b1a187"/><path d="M387 567v32m-4-32h8" stroke="#d6c7ae" stroke-width="3"/><ellipse cx="460" cy="510" rx="37" ry="17" fill="#e1d5bd"/><ellipse cx="460" cy="510" rx="26" ry="11" fill="none" stroke="#b1a187"/><path d="M507 504v32m-4-32h8" stroke="#d6c7ae" stroke-width="3"/><ellipse cx="580" cy="573" rx="37" ry="17" fill="#e1d5bd"/><ellipse cx="580" cy="573" rx="26" ry="11" fill="none" stroke="#b1a187"/><path d="M627 567v32m-4-32h8" stroke="#d6c7ae" stroke-width="3"/><ellipse cx="700" cy="510" rx="37" ry="17" fill="#e1d5bd"/><ellipse cx="700" cy="510" rx="26" ry="11" fill="none" stroke="#b1a187"/><path d="M747 504v32m-4-32h8" stroke="#d6c7ae" stroke-width="3"/><ellipse cx="820" cy="573" rx="37" ry="17" fill="#e1d5bd"/><ellipse cx="820" cy="573" rx="26" ry="11" fill="none" stroke="#b1a187"/><path d="M867 567v32m-4-32h8" stroke="#d6c7ae" stroke-width="3"/><ellipse cx="940" cy="510" rx="37" ry="17" fill="#e1d5bd"/><ellipse cx="940" cy="510" rx="26" ry="11" fill="none" stroke="#b1a187"/><path d="M987 504v32m-4-32h8" stroke="#d6c7ae" stroke-width="3"/><ellipse cx="335" cy="535" rx="24" ry="8" fill="#917453"/><path d="M335 535V427" stroke="#e5c797" stroke-width="10"/><ellipse cx="335" cy="417" rx="7" ry="17" fill="#ffdfa5"/><circle cx="335" cy="420" r="83" fill="url(#halo)"/><ellipse cx="610" cy="535" rx="24" ry="8" fill="#917453"/><path d="M610 535V427" stroke="#e5c797" stroke-width="10"/><ellipse cx="610" cy="417" rx="7" ry="17" fill="#ffdfa5"/><circle cx="610" cy="420" r="83" fill="url(#halo)"/><ellipse cx="859" cy="535" rx="24" ry="8" fill="#917453"/><path d="M859 535V427" stroke="#e5c797" stroke-width="10"/><ellipse cx="859" cy="417" rx="7" ry="17" fill="#ffdfa5"/><circle cx="859" cy="420" r="83" fill="url(#halo)"/><path d="M580 0v150m-120 0h240" stroke="#ab8055" stroke-width="7"/><path d="M450 151h25v28h-25zm125 0h25v28h-25zm125 0h25v28h-25z" fill="#ecd09b"/><rect x="20" y="20" width="1160" height="760" rx="4" fill="none" stroke="#e8d9b9" stroke-opacity=".09"/></svg>